<svg width="38" height="38" viewBox="0 0 38 38" fill="none" xmlns="http://www.w3.org/2000/svg">
<path d="M9.50033 16.0394C12.0542 14.2138 14.9692 13.5694 17.417 13.5694V9.85964C17.417 8.3428 17.417 7.58439 17.8841 7.3738C18.3512 7.1648 18.918 7.6683 20.0532 8.67689L26.3407 14.2661C28.8249 16.4748 30.0662 17.5784 30.0662 19.0002C30.0662 20.4221 28.8249 21.5272 26.3407 23.7344L20.0517 29.3236C18.918 30.3321 18.3512 30.8372 17.8825 30.6266C17.417 30.4161 17.417 29.6592 17.417 28.1408V24.4295C11.717 24.4295 5.54199 27.1433 3.16699 31.6669C3.16699 27.8178 3.76391 24.7351 4.75033 22.2856" stroke="white" stroke-width="3" stroke-linecap="round" stroke-linejoin="round"/>
<path d="M24.6035 7.125L32.8622 14.7947C33.5005 15.3875 34.0061 16.1088 34.3456 16.911C34.6851 17.7133 34.8509 18.5784 34.8321 19.4493C34.8132 20.3203 34.6102 21.1774 34.2363 21.9642C33.8623 22.751 33.3261 23.4498 32.6627 24.0144L24.6035 30.875" stroke="white" stroke-width="3" stroke-linecap="round"/>
</svg>
