<svg width="38" height="38" viewBox="0 0 38 38" fill="none" xmlns="http://www.w3.org/2000/svg">
<path fill-rule="evenodd" clip-rule="evenodd" d="M13.4112 3.91077C13.6338 3.68839 13.9356 3.56348 14.2503 3.56348C14.565 3.56348 14.8668 3.68839 15.0895 3.91077L18.2562 7.07743C18.422 7.2435 18.535 7.455 18.5807 7.68522C18.6264 7.91543 18.6029 8.15404 18.5131 8.37089C18.4233 8.58775 18.2713 8.77314 18.0762 8.90364C17.8811 9.03413 17.6517 9.10389 17.417 9.1041H14.2503C11.6258 9.1041 9.10874 10.1467 7.25291 12.0025C5.39709 13.8583 4.35449 16.3754 4.35449 18.9999C4.35449 21.6245 5.39709 24.1415 7.25291 25.9973C9.10874 27.8532 11.6258 28.8958 14.2503 28.8958H15.042C15.3569 28.8958 15.659 29.0209 15.8817 29.2436C16.1044 29.4663 16.2295 29.7683 16.2295 30.0833C16.2295 30.3982 16.1044 30.7003 15.8817 30.923C15.659 31.1457 15.3569 31.2708 15.042 31.2708H14.2503C10.9959 31.2708 7.87476 29.9779 5.57354 27.6767C3.27231 25.3755 1.97949 22.2544 1.97949 18.9999C1.97949 15.7455 3.27231 12.6244 5.57354 10.3231C7.87476 8.02191 10.9959 6.7291 14.2503 6.7291H14.5512L13.4112 5.5891C13.1888 5.36644 13.0639 5.06462 13.0639 4.74993C13.0639 4.43524 13.1888 4.13342 13.4112 3.91077ZM21.7712 7.9166C21.7712 7.60165 21.8963 7.29961 22.119 7.07691C22.3417 6.85421 22.6437 6.7291 22.9587 6.7291H23.7503C27.0048 6.7291 30.1259 8.02191 32.4271 10.3231C34.7283 12.6244 36.0212 15.7455 36.0212 18.9999C36.0212 22.2544 34.7283 25.3755 32.4271 27.6767C30.1259 29.9779 27.0048 31.2708 23.7503 31.2708H23.4495L24.5895 32.4108C24.7062 32.5195 24.7997 32.6506 24.8646 32.7962C24.9296 32.9419 24.9645 33.0992 24.9673 33.2586C24.9701 33.4181 24.9407 33.5764 24.881 33.7243C24.8213 33.8722 24.7324 34.0065 24.6196 34.1192C24.5069 34.232 24.3726 34.3209 24.2247 34.3806C24.0768 34.4404 23.9184 34.4697 23.759 34.4669C23.5996 34.4641 23.4423 34.4292 23.2966 34.3643C23.151 34.2993 23.0199 34.2058 22.9112 34.0891L19.7445 30.9224C19.5786 30.7564 19.4657 30.5449 19.42 30.3146C19.3742 30.0844 19.3977 29.8458 19.4875 29.629C19.5773 29.4121 19.7294 29.2267 19.9245 29.0962C20.1196 28.9657 20.3489 28.896 20.5837 28.8958H23.7503C26.3749 28.8958 28.8919 27.8532 30.7477 25.9973C32.6036 24.1415 33.6462 21.6245 33.6462 18.9999C33.6462 16.3754 32.6036 13.8583 30.7477 12.0025C28.8919 10.1467 26.3749 9.1041 23.7503 9.1041H22.9587C22.6437 9.1041 22.3417 8.97899 22.119 8.75629C21.8963 8.53359 21.7712 8.23154 21.7712 7.9166Z" fill="white" fill-opacity="0.7"/>
</svg>
