<svg width="38" height="38" viewBox="0 0 38 38" fill="none" xmlns="http://www.w3.org/2000/svg">
<path d="M3.16699 25.7293C2.85205 25.7293 2.55 25.8544 2.3273 26.0771C2.1046 26.2998 1.97949 26.6019 1.97949 26.9168C1.97949 27.2318 2.1046 27.5338 2.3273 27.7565C2.55 27.9792 2.85205 28.1043 3.16699 28.1043V25.7293ZM8.87174 28.1043C9.18669 28.1043 9.48873 27.9792 9.71143 27.7565C9.93413 27.5338 10.0592 27.2318 10.0592 26.9168C10.0592 26.6019 9.93413 26.2998 9.71143 26.0771C9.48873 25.8544 9.18669 25.7293 8.87174 25.7293V28.1043ZM34.8337 11.0835L35.6728 11.9227C35.8952 11.7 36.0201 11.3982 36.0201 11.0835C36.0201 10.7688 35.8952 10.467 35.6728 10.2443L34.8337 11.0835ZM30.8278 13.411C30.6181 13.6361 30.5039 13.9338 30.5093 14.2415C30.5147 14.5491 30.6394 14.8427 30.8569 15.0602C31.0745 15.2778 31.368 15.4024 31.6757 15.4079C31.9833 15.4133 32.281 15.2991 32.5062 15.0893L30.8278 13.411ZM32.5062 7.07766C32.3974 6.96099 32.2663 6.86741 32.1207 6.80251C31.975 6.7376 31.8178 6.70271 31.6583 6.69989C31.4989 6.69708 31.3405 6.72641 31.1926 6.78613C31.0448 6.84586 30.9104 6.93475 30.7977 7.04752C30.6849 7.16028 30.596 7.2946 30.5363 7.44247C30.4766 7.59033 30.4472 7.74871 30.4501 7.90816C30.4529 8.0676 30.4878 8.22485 30.5527 8.37051C30.6176 8.51618 30.7112 8.64728 30.8278 8.756L32.5062 7.07766ZM13.807 24.9028C13.6913 25.0088 13.5978 25.1367 13.5318 25.2791C13.4659 25.4215 13.4288 25.5755 13.4227 25.7323C13.4166 25.8891 13.4417 26.0455 13.4964 26.1926C13.5512 26.3396 13.6345 26.4743 13.7416 26.589C13.8487 26.7036 13.9775 26.7959 14.1205 26.8605C14.2635 26.9251 14.4179 26.9607 14.5747 26.9653C14.7316 26.9699 14.8877 26.9433 15.0343 26.8872C15.1808 26.831 15.3147 26.7464 15.4283 26.6382L13.807 24.9028ZM3.16699 28.1043H8.87174V25.7293H3.16699V28.1043ZM18.0345 22.9157L22.0007 16.3069L19.9646 15.0846L15.9999 21.6934L18.0345 22.9157ZM29.1289 12.271H34.8337V9.896H29.1289V12.271ZM33.9945 10.2443L30.8278 13.411L32.5062 15.0893L35.6728 11.9227L33.9945 10.2443ZM35.6728 10.2443L32.5062 7.07766L30.8278 8.756L33.9945 11.9227L35.6728 10.2443ZM22.0007 16.3069C22.6879 15.1606 23.1629 14.3752 23.5936 13.791C24.01 13.2289 24.3346 12.9312 24.6845 12.7333L23.5144 10.6671C22.775 11.0851 22.2161 11.6598 21.6857 12.3771C21.1695 13.0737 20.628 13.9778 19.9646 15.0846L22.0007 16.3069ZM29.1289 9.896C27.8385 9.896 26.7856 9.896 25.9227 9.97833C25.0328 10.0654 24.2538 10.2475 23.5144 10.6671L24.6845 12.7333C25.0328 12.5354 25.4556 12.4103 26.1522 12.3422C26.8742 12.2726 27.7926 12.271 29.1289 12.271V9.896ZM15.9999 21.6934C14.928 23.4794 14.3849 24.3629 13.807 24.9028L15.4283 26.6382C16.3102 25.8148 17.0417 24.5703 18.0345 22.9157L15.9999 21.6934ZM3.16699 9.896C2.85205 9.896 2.55 10.0211 2.3273 10.2438C2.1046 10.4665 1.97949 10.7686 1.97949 11.0835C1.97949 11.3984 2.1046 11.7005 2.3273 11.9232C2.55 12.1459 2.85205 12.271 3.16699 12.271V9.896ZM34.8337 26.9168L35.6728 27.756C35.8952 27.5333 36.0201 27.2315 36.0201 26.9168C36.0201 26.6021 35.8952 26.3003 35.6728 26.0777L34.8337 26.9168ZM32.5062 22.911C32.3974 22.7943 32.2663 22.7007 32.1207 22.6358C31.975 22.5709 31.8178 22.536 31.6583 22.5332C31.4989 22.5304 31.3405 22.5597 31.1926 22.6195C31.0448 22.6792 30.9104 22.7681 30.7977 22.8809C30.6849 22.9936 30.596 23.1279 30.5363 23.2758C30.4766 23.4237 30.4472 23.582 30.4501 23.7415C30.4529 23.9009 30.4878 24.0582 30.5527 24.2038C30.6176 24.3495 30.7112 24.4806 30.8278 24.5893L32.5062 22.911ZM30.8278 29.2443C30.7112 29.353 30.6176 29.4841 30.5527 29.6298C30.4878 29.7755 30.4529 29.9327 30.4501 30.0922C30.4472 30.2516 30.4766 30.41 30.5363 30.5579C30.596 30.7057 30.6849 30.84 30.7977 30.9528C30.9104 31.0656 31.0448 31.1545 31.1926 31.2142C31.3405 31.2739 31.4989 31.3032 31.6583 31.3004C31.8178 31.2976 31.975 31.2627 32.1207 31.1978C32.2663 31.1329 32.3974 31.0393 32.5062 30.9227L30.8278 29.2443ZM22.8684 23.1406C22.7916 23.0005 22.6874 22.8773 22.5619 22.7784C22.4364 22.6795 22.2922 22.6069 22.138 22.5651C21.9838 22.5232 21.8228 22.5129 21.6645 22.5348C21.5062 22.5566 21.354 22.6102 21.2169 22.6923C21.0798 22.7744 20.9607 22.8833 20.8667 23.0125C20.7727 23.1417 20.7058 23.2885 20.6698 23.4442C20.6339 23.5999 20.6298 23.7612 20.6577 23.9185C20.6856 24.0758 20.745 24.2259 20.8322 24.3597L22.8684 23.1406ZM15.1322 14.8613C15.2959 15.128 15.5583 15.3193 15.8622 15.3936C16.1662 15.4679 16.4872 15.4193 16.7555 15.2582C17.0238 15.0972 17.2176 14.8367 17.295 14.5335C17.3723 14.2303 17.3268 13.9089 17.1684 13.639L15.1322 14.8613ZM3.16699 12.271H10.558V9.896H3.16699V12.271ZM27.4427 28.1043H34.8337V25.7293H27.4427V28.1043ZM35.6728 26.0777L32.5062 22.911L30.8278 24.5893L33.9945 27.756L35.6728 26.0777ZM33.9945 26.0777L30.8278 29.2443L32.5062 30.9227L35.6728 27.756L33.9945 26.0777ZM27.4427 25.7293C26.4214 25.7293 26.0699 25.7246 25.7596 25.6644L25.3052 27.9951C25.8942 28.1091 26.5164 28.1043 27.4427 28.1043V25.7293ZM20.8322 24.3597C21.3072 25.1546 21.6239 25.6913 22.0261 26.1378L23.7915 24.5497C23.5793 24.3138 23.3957 24.0162 22.8684 23.1406L20.8322 24.3597ZM25.7596 25.6644C24.9999 25.5165 24.309 25.1252 23.7915 24.5497L22.0261 26.1378C22.8884 27.0966 24.0395 27.7485 25.3052 27.9951L25.7596 25.6644ZM10.558 12.271C11.5792 12.271 11.9307 12.2757 12.2411 12.3359L12.6955 10.0052C12.1065 9.89124 11.4842 9.896 10.558 9.896V12.271ZM17.1684 13.639C16.6934 12.8442 16.3767 12.309 15.9746 11.8625L14.2092 13.4506C14.4213 13.6865 14.605 13.9857 15.1322 14.8613L17.1684 13.639ZM12.2411 12.3359C13.0011 12.4847 13.6914 12.8742 14.2092 13.4506L15.9746 11.8625C15.1122 10.9038 13.9612 10.2518 12.6955 10.0052L12.2411 12.3359Z" fill="white" fill-opacity="0.7"/>
</svg>
