<svg width="38" height="38" viewBox="0 0 38 38" fill="none" xmlns="http://www.w3.org/2000/svg">
<path d="M31.6671 9.49996C31.6671 9.49996 34.0421 12.35 34.0421 19C34.0421 25.65 31.6671 28.5 31.6671 28.5M28.5004 14.25C28.5004 14.25 29.2921 15.675 29.2921 19C29.2921 22.325 28.5004 23.75 28.5004 23.75M3.10215 13.5802C3.60627 12.6889 4.36862 11.9713 5.28873 11.5219C6.23873 11.0833 7.3249 11.0833 9.5004 11.0833C10.3111 11.0833 10.7164 11.0833 11.1091 11.0168C11.4974 10.951 11.8761 10.8372 12.2364 10.678C12.6006 10.518 12.9394 10.2948 13.6155 9.84829L13.9638 9.6203C17.9871 6.96505 20.0011 5.63663 21.6921 6.21455C22.0166 6.32538 22.3301 6.48371 22.6104 6.68163C24.0718 7.70763 24.1826 10.0969 24.4043 14.8738C24.4766 16.2482 24.5225 17.6238 24.5421 19C24.5421 19.8423 24.4866 21.356 24.4043 23.1245C24.1826 27.903 24.0718 30.2907 22.6104 31.3183C22.328 31.5167 22.0188 31.674 21.6921 31.7854C20.0026 32.3617 17.9886 31.0349 13.9622 28.3796L13.6171 28.1516C12.941 27.7051 12.6037 27.4819 12.238 27.3204C11.8776 27.1617 11.499 27.0484 11.1106 26.9831C10.7164 26.9166 10.3111 26.9166 9.5004 26.9166C7.3249 26.9166 6.23873 26.9166 5.28873 26.478C4.36862 26.0287 3.60627 25.311 3.10215 24.4197C2.60498 23.4982 2.54798 22.5419 2.43082 20.6276C2.41287 20.3426 2.39915 20.064 2.38965 19.7916" stroke="white" stroke-width="3" stroke-linecap="round"/>
</svg>
